<svg width="231" height="227" viewBox="0 0 231 227" fill="none" xmlns="http://www.w3.org/2000/svg">
<path d="M128.005 163.407C125.452 178.366 119.042 192.401 109.409 204.126C106.992 207.043 104.395 209.804 101.631 212.394C98.6776 215.18 95.309 217.49 91.6459 219.242C89.6327 220.16 87.4944 220.775 85.3009 221.066C82.8692 221.4 80.3926 221.141 78.0828 220.31C75.706 219.442 73.5912 217.98 71.9399 216.063C70.3612 214.188 69.2253 211.982 68.6166 209.608C68.0594 207.467 67.8177 205.257 67.8994 203.047C67.9664 200.993 68.2044 198.949 68.6109 196.934C69.0173 194.992 69.5369 193.076 70.1672 191.194L70.6553 189.803L71.1645 188.506L72.186 185.922C72.8701 184.201 73.5449 182.476 74.3378 180.802L76.6368 175.746C78.32 172.449 79.9232 169.109 81.7956 165.915C83.5488 162.654 85.5689 159.551 87.5033 156.398C89.5931 153.346 91.5936 150.231 93.8545 147.302C96.0094 144.294 98.3811 141.454 100.708 138.581C101.917 137.183 103.159 135.812 104.384 134.428C105.003 133.742 105.6 133.036 106.239 132.368L108.167 130.375L110.211 128.262L111.236 127.208L112.302 126.195L116.568 122.145C119.525 119.566 122.442 116.942 125.552 114.543C131.681 109.633 138.151 105.165 144.913 101.17C148.329 99.0303 151.921 97.1836 155.649 95.6503C157.594 94.8584 159.598 94.2165 161.641 93.73C163.762 93.2056 165.935 92.927 168.119 92.8998C170.389 92.8723 172.651 93.168 174.838 93.7782C177.052 94.4113 179.15 95.3969 181.05 96.6971C184.679 99.257 187.619 102.674 189.608 106.645C190.918 109.145 191.948 111.78 192.682 114.505C193.058 115.842 193.354 117.2 193.568 118.572L194.16 122.626C194.669 128.05 194.513 133.516 193.694 138.902C192.762 144.199 191.326 149.394 189.404 154.417C187.444 159.345 185.153 164.134 182.546 168.753C179.922 173.322 177.06 177.722 174.033 181.981C170.968 186.207 167.779 190.317 164.464 194.312C157.866 202.247 150.862 210.03 142.849 216.94C138.816 220.418 134.517 223.575 129.991 226.381C127.72 227.8 125.347 229.074 122.936 230.272C121.724 230.865 120.464 231.396 119.227 231.956C117.957 232.436 116.7 232.958 115.415 233.398C110.26 235.184 104.906 236.332 99.4727 236.815C93.9724 237.332 88.4255 237.017 83.0191 235.881C71.8871 233.625 62.0085 227.27 55.341 218.075C52.0992 213.598 49.5091 208.684 47.6483 203.479C45.8352 198.324 44.6493 192.97 44.1164 187.531C43.6477 182.154 43.706 176.744 44.2904 171.378C44.8768 166.097 45.8357 160.863 47.1599 155.718C48.4644 150.61 50.0193 145.602 51.7512 140.699C52.614 138.244 53.498 135.809 54.4614 133.405C55.4201 131 56.3243 128.573 57.329 126.186C61.2775 116.596 65.7387 107.227 70.6935 98.1165C75.637 88.98 81.1382 80.1565 87.166 71.696C93.2316 63.2395 99.8588 55.2002 107.003 47.6325C114.141 40.0332 121.882 33.0238 130.151 26.6726C131.155 25.8409 132.23 25.1002 133.286 24.3359L136.462 22.0528C138.547 20.4977 140.774 19.0931 142.964 17.6546C147.422 14.8688 152.03 12.3317 156.768 10.0551C161.548 7.80217 166.479 5.88502 171.525 4.31758C176.619 2.7549 181.847 1.67122 187.143 1.08062C193.736 0.327528 200.406 0.574999 206.926 1.81467L209.363 2.35896C210.18 2.51863 210.987 2.72637 211.78 2.98111L214.162 3.73813C214.962 3.97026 215.75 4.24308 216.522 4.55547C219.633 5.75161 222.637 7.21093 225.501 8.91757C231.183 12.3347 236.307 16.6037 240.695 21.5755C245.026 26.5177 248.702 31.9969 251.634 37.878C254.568 43.7307 256.825 49.8986 258.363 56.2625C259.85 62.5927 260.715 69.053 260.947 75.5515C261.47 88.5099 259.821 101.383 257.043 113.854C254.271 126.33 250.496 138.563 245.755 150.432C241.01 162.348 235.131 173.782 228.201 184.574C221.238 195.452 212.925 205.403 203.461 214.19C198.7 218.6 193.591 222.618 188.183 226.204C185.463 227.978 182.697 229.687 179.844 231.246C178.412 232.016 176.995 232.812 175.524 233.508L173.336 234.585C172.593 234.936 171.808 235.298 171.032 235.615C167.923 236.919 164.703 237.943 161.412 238.673C158.088 239.424 154.695 239.828 151.288 239.88C147.751 239.947 144.226 239.468 140.836 238.459C137.227 237.377 133.941 235.424 131.265 232.772C128.622 230.035 126.742 226.652 125.814 222.962C125.016 219.549 124.714 216.039 124.919 212.54C124.981 210.87 125.107 209.25 125.288 207.645L125.786 202.816L126.529 198.02C126.663 197.223 126.756 196.417 126.926 195.627L127.419 193.252C130.003 180.569 134.412 168.328 140.51 156.912L142.853 152.676C143.634 151.264 144.53 149.92 145.364 148.539L146.638 146.482C147.071 145.802 147.546 145.149 147.998 144.481L150.751 140.502C154.579 135.307 158.747 130.371 163.227 125.726C164.339 124.559 165.535 123.473 166.686 122.343L168.428 120.665C169.025 120.123 169.642 119.603 170.248 119.071C171.471 118.017 172.672 116.945 173.914 115.908C175.194 114.902 176.445 113.864 177.776 112.923C180.401 110.986 183.13 109.193 185.95 107.553C187.393 106.777 188.795 105.935 190.289 105.245C191.028 104.888 191.76 104.518 192.506 104.173L194.78 103.207C195.531 102.871 196.307 102.586 197.089 102.314C197.869 102.039 198.642 101.747 199.428 101.488C201.031 101.046 202.599 100.504 204.246 100.197C207.523 99.44 210.872 99.0459 214.235 99.0214L216.776 99.0894C217.623 99.1011 218.467 99.2621 219.312 99.3444C221.003 99.5529 222.68 99.8688 224.331 100.29C225.152 100.518 225.957 100.809 226.769 101.068L227.983 101.471C228.382 101.62 228.77 101.797 229.163 101.96L230.338 102.462L231.481 103.035C232.251 103.4 232.987 103.831 233.719 104.267C236.636 106.019 239.31 108.148 241.67 110.598C243.99 113.029 246.031 115.712 247.753 118.597C251.081 124.293 253.508 130.469 254.948 136.907C256.402 143.232 257.214 149.688 257.373 156.176C257.458 159.404 257.441 162.639 257.248 165.857L256.482 175.408C254.871 190.788 251.459 205.925 246.316 220.508C241.224 234.992 234.572 248.879 226.475 261.923C220.135 272.264 212.741 281.92 204.411 290.737C202.686 292.48 201.046 294.115 199.491 295.642L198.34 296.769C197.956 297.133 197.553 297.466 197.169 297.807L194.908 299.762C193.444 301.017 192.064 302.178 190.767 303.246C189.46 304.306 188.15 305.186 186.97 306.037C180.031 310.919 179.478 310.07 184.386 304.803C189.293 299.559 199.616 289.647 211.638 273.527C212.586 272.252 213.566 270.988 214.506 269.686C215.408 268.356 216.313 267.019 217.223 265.675C218.136 264.333 219.052 262.986 219.973 261.632L222.547 257.43C223.432 256.039 224.254 254.603 225.123 253.19C225.954 251.755 226.708 250.271 227.508 248.809C228.3 247.342 229.092 245.872 229.886 244.399C230.675 242.924 231.346 241.386 232.085 239.88C237.909 227.836 242.557 215.258 245.965 202.322L247.36 196.813C247.612 195.899 247.79 194.969 247.971 194.039L248.524 191.253L249.631 185.679L250.443 180.056L250.849 177.244C250.986 176.307 251.131 175.37 251.195 174.425L251.705 168.766C252.099 165.023 252.268 161.26 252.212 157.496C252.171 153.75 251.912 150.008 251.434 146.292C250.974 142.591 250.253 138.928 249.277 135.329C248.325 131.756 247.043 128.281 245.445 124.947C243.884 121.649 241.909 118.564 239.569 115.765C234.951 110.191 228.561 106.37 221.466 104.94C217.936 104.228 214.318 104.062 210.738 104.449C207.112 104.881 203.546 105.716 200.106 106.938C196.622 108.17 193.257 109.714 190.051 111.551C186.805 113.368 183.694 115.417 180.742 117.681C179.987 118.226 179.27 118.822 178.545 119.408C177.818 119.991 177.091 120.573 176.398 121.21C174.999 122.462 173.578 123.689 172.196 124.957L168.182 128.907C166.876 130.254 165.634 131.664 164.357 133.038C159.378 138.66 154.887 144.695 150.93 151.077L149.476 153.486C148.992 154.29 148.492 155.084 148.064 155.92L145.404 160.877L142.982 165.954C142.202 167.658 141.52 169.406 140.784 171.129C137.999 178.085 135.794 185.26 134.193 192.58C133.843 194.417 133.406 196.239 133.124 198.088L132.295 203.636C131.846 207.308 131.583 211 131.508 214.698C131.531 218.262 132.04 221.675 133.487 224.479C134.941 227.319 137.305 229.591 140.2 230.932C143.293 232.321 146.647 233.031 150.037 233.014C153.595 233.039 157.142 232.611 160.591 231.738C164.089 230.883 167.481 229.644 170.707 228.045C172.367 227.211 174.036 226.396 175.649 225.473C177.291 224.603 178.871 223.624 180.465 222.668C183.609 220.689 186.701 218.618 189.641 216.336C191.135 215.229 192.564 214.034 194.016 212.872C194.736 212.282 195.429 211.659 196.137 211.055C196.843 210.447 197.551 209.843 198.227 209.201C210.423 198.131 220.629 184.429 228.771 169.743C236.744 155.175 243.068 139.763 247.624 123.793C251.228 111.355 253.918 98.6359 254.655 85.8065C255.03 79.4121 254.846 72.9971 254.103 66.6349C253.361 60.309 251.881 54.0918 249.692 48.1104C245.287 36.2096 237.805 25.3587 227.866 17.6476C222.906 13.813 217.278 10.9304 211.267 9.14548C205.24 7.3859 198.959 6.65679 192.689 6.98892C186.356 7.33105 180.092 8.4782 174.049 10.4027C167.946 12.3321 162.035 14.821 156.39 17.8375C150.701 20.8503 145.251 24.2921 140.085 28.1333L136.183 31.0133C134.884 31.9761 133.664 33.0426 132.4 34.0512L128.647 37.1234L125.033 40.3636C115.435 49.0658 106.669 58.644 98.8485 68.9738C91.0622 79.3455 84.0601 90.2834 77.9006 101.697C75.5555 105.908 73.4407 110.246 71.3067 114.574L68.2746 121.151C67.2731 123.348 66.3696 125.59 65.4122 127.808C64.4398 130.02 63.5838 132.281 62.7022 134.532C61.8158 136.782 60.9403 139.035 60.1163 141.305C58.4694 145.839 56.9566 150.397 55.6729 154.994C53.1292 164.176 51.5105 173.573 51.8235 182.885C51.8943 185.195 52.0895 187.499 52.4082 189.787C52.7512 192.066 53.2218 194.324 53.8178 196.55C54.9791 200.984 56.7248 205.244 59.0088 209.217C61.2464 213.134 64.1003 216.665 67.4609 219.675C70.8215 222.613 74.682 224.924 78.8589 226.498C83.097 228.085 87.5629 228.98 92.0854 229.148C96.6737 229.337 101.267 228.946 105.758 227.983C110.278 227.026 114.673 225.553 118.858 223.594C123.089 221.588 127.129 219.199 130.926 216.458C138.597 210.981 145.479 204.291 151.923 197.14C154.787 193.95 157.62 190.654 160.327 187.319C161.712 185.67 163.007 183.961 164.341 182.278C165.639 180.572 166.923 178.856 168.174 177.121C173.183 170.261 177.492 162.916 181.036 155.196C181.847 153.261 182.715 151.341 183.362 149.357C183.696 148.368 184.098 147.396 184.379 146.395L185.231 143.393C185.554 142.4 185.724 141.379 185.946 140.368C186.146 139.354 186.407 138.346 186.561 137.327C186.887 135.294 187.104 133.245 187.213 131.189C187.248 130.164 187.341 129.136 187.336 128.112L187.21 125.041C187.18 124.53 187.194 124.014 187.129 123.507L186.922 121.986L186.512 118.944C185.836 115.036 184.44 111.287 182.396 107.888C180.531 104.67 177.679 102.137 174.264 100.664C170.918 99.3285 167.078 99.3685 163.263 100.29C155.578 102.142 148.255 107.057 141.122 111.731C126.895 121.349 114.234 133.1 103.583 146.571C98.2339 153.273 93.3929 160.365 89.1003 167.789C88.0682 169.666 86.9702 171.509 85.9894 173.414L83.0944 179.154L80.4475 185.013C79.6015 186.981 78.8429 188.986 78.0258 190.967C77.8301 191.461 77.6132 191.966 77.4343 192.451L76.9219 193.897C76.5986 194.867 76.3145 195.843 76.0543 196.824C75.5482 198.75 75.2307 200.72 75.1064 202.707C74.9725 204.553 75.1496 206.408 75.6303 208.195C76.057 209.782 76.9495 211.204 78.1924 212.278C79.4251 213.329 80.9443 213.987 82.5542 214.166C84.3377 214.353 86.1405 214.147 87.8358 213.562C89.7045 212.938 91.4897 212.087 93.1517 211.029C93.58 210.761 93.9852 210.463 94.4361 210.221C94.8394 209.912 95.2554 209.621 95.6497 209.298C96.4499 208.659 97.2114 208.009 97.9697 207.289C110.419 195.547 118.848 180.178 122.057 163.369C122.428 161.278 122.779 159.166 122.942 157.123C123.092 155.055 123.094 152.978 122.946 150.91C122.775 148.862 122.436 146.832 121.932 144.84C121.404 142.905 120.653 141.039 119.694 139.278C118.74 137.608 117.482 136.131 115.984 134.923C115.598 134.659 115.244 134.341 114.838 134.109L113.6 133.445C113.178 133.243 112.719 133.118 112.282 132.945C111.843 132.775 111.39 132.643 110.929 132.55C107.219 131.76 103.134 132.681 99.2972 134.263C97.7563 134.898 96.2302 135.6 94.7191 136.4C93.2163 137.208 91.6768 137.942 90.2103 138.804C87.2482 140.474 84.3674 142.255 81.5681 144.147C76.0241 147.919 70.7777 152.111 65.8751 156.686C56.3564 165.696 47.8856 175.752 40.6239 186.664C26.2735 208.062 15.7866 230.65 6.64649 252.121C2.48986 262.029 0.420264 266.621 0.235406 265.714C0.101378 264.826 1.76498 258.415 5.94063 246.601C7.44295 242.43 8.99196 238.242 10.6191 234.053C11.4153 231.952 12.3095 229.885 13.189 227.803C14.0576 225.718 14.9861 223.65 15.8968 221.569C19.6059 213.275 23.6326 205.006 28.182 196.942C30.4996 192.934 32.8531 188.926 35.4201 185.031C36.6583 183.057 38.0212 181.156 39.3196 179.214C40.7001 177.324 42.0119 175.386 43.4576 173.537C46.2472 169.769 49.2827 166.17 52.3772 162.625C55.5399 159.136 58.7943 155.719 62.2612 152.513C67.9651 147.151 74.1527 142.329 80.745 138.108C82.4104 137.058 84.0669 135.991 85.7979 135.042L88.3691 133.575L91.0024 132.216C94.6087 130.217 98.4477 128.669 102.432 127.608C104.616 127.048 106.867 126.802 109.12 126.874C110.299 126.931 111.47 127.098 112.618 127.371C113.198 127.506 113.767 127.681 114.322 127.895C114.89 128.076 115.445 128.293 115.985 128.544C118.137 129.57 120.078 130.989 121.71 132.726C123.223 134.428 124.488 136.334 125.47 138.388C126.394 140.352 127.11 142.409 127.604 144.523C128.097 146.576 128.428 148.664 128.595 150.769C128.644 151.811 128.746 152.854 128.726 153.895L128.729 155.456L128.654 157.015C128.627 158.055 128.475 159.091 128.383 160.128L127.942 163.107C127.965 163.201 127.985 163.29 128.005 163.407Z" fill="black"/>
</svg>
