<svg width="42" height="42" viewBox="0 0 42 42" fill="none" xmlns="http://www.w3.org/2000/svg">
<rect width="42" height="42" rx="21" fill="#F4F4F4"/>
<path d="M20.9999 20.2759C22.5997 20.2759 23.8965 18.979 23.8965 17.3793C23.8965 15.7796 22.5997 14.4828 20.9999 14.4828C19.4002 14.4828 18.1034 15.7796 18.1034 17.3793C18.1034 18.979 19.4002 20.2759 20.9999 20.2759Z" stroke="black" stroke-width="1.44828" stroke-linecap="round" stroke-linejoin="round"/>
<path d="M26.7931 27.5172V26.069C26.7931 25.3007 26.4879 24.564 25.9447 24.0208C25.4015 23.4776 24.6648 23.1724 23.8966 23.1724H18.1035C17.3352 23.1724 16.5985 23.4776 16.0553 24.0208C15.5121 24.564 15.2069 25.3007 15.2069 26.069V27.5172" stroke="black" stroke-width="1.44828" stroke-linecap="round" stroke-linejoin="round"/>
</svg>
