<svg width="126" height="126" viewBox="0 0 126 126" fill="none" xmlns="http://www.w3.org/2000/svg">
<g clip-path="url(#clip0_221_703)">
<path d="M58.0351 38.1374C57.6323 39.0313 57.2258 39.9231 56.795 40.8056C56.5722 41.2759 56.3429 41.7458 56.1525 42.2293C55.1388 44.8109 54.1553 47.4062 53.0789 49.9636C52.4088 51.5348 51.7224 53.0992 51.0197 54.6567L49.9586 56.9896L48.8715 59.3104C48.6393 59.7744 48.3703 60.219 48.0671 60.64C47.9506 60.8179 47.7935 60.9656 47.6088 61.0709C47.424 61.1762 47.2168 61.236 47.0044 61.2454C46.4164 61.2844 46.038 60.7907 46.2077 60.1097C46.3288 59.6694 46.5046 59.246 46.7309 58.8494C47.229 57.936 47.6862 57.0051 48.1025 56.0565C48.5223 55.1095 48.9033 54.1454 49.2454 53.1643C49.4347 52.6229 49.6009 52.0461 49.8945 51.5686C50.8307 50.0423 51.4207 48.3486 52.225 46.7591C52.822 45.5773 53.3303 44.3489 53.8922 43.1482L55.3924 39.9347C55.8863 38.8608 56.4074 37.7982 56.9049 36.7252C57.1105 36.3127 57.343 35.9142 57.601 35.5323C57.8539 35.1771 58.1263 34.8363 58.417 34.5114C58.6734 34.2233 58.8987 34.3412 58.8543 34.7797C58.7892 35.4087 58.6803 36.0324 58.5283 36.6462C58.4662 36.8984 58.3892 37.1481 58.3017 37.3945C58.2044 37.6368 58.1067 37.8799 58.0096 38.1216L58.0351 38.1374Z" fill="white"/>
<path d="M80.091 56.0118L79.1122 56.7962L78.113 57.5578C77.7604 57.828 77.4058 58.0994 77.0778 58.3983C76.6392 58.7959 76.2054 59.1991 75.7734 59.6039L74.4708 60.8101L71.8719 63.2273L68.6647 66.1955L65.4734 69.1817C65.1418 69.4753 64.7896 69.7447 64.4194 69.9878C64.2718 70.0938 64.1015 70.1637 63.922 70.1921C63.7425 70.2205 63.5589 70.2065 63.3858 70.1513C62.9049 70.0094 62.7539 69.5055 63.0965 69.0059C63.3262 68.6861 63.5962 68.3971 63.8997 68.1462C65.2551 66.9797 66.5355 65.7287 67.7332 64.4006C68.0431 64.0122 68.3962 63.6603 68.7857 63.3517C70.0484 62.4639 71.1041 61.3354 72.3058 60.3787C73.1988 59.6688 74.0425 58.894 74.9333 58.1789C76.5268 56.9097 78.1315 55.6571 79.7816 54.4633C80.4033 54.0034 81.0966 53.6494 81.8337 53.4157C82.1526 53.3139 82.2972 53.5271 82.0813 53.8351C81.7688 54.274 81.4278 54.6919 81.0606 55.0862C80.751 55.4063 80.4227 55.7078 80.0774 55.9891L80.091 56.0118Z" fill="white"/>
<path d="M87.8602 81.5748C87.1386 81.6417 86.4164 81.7054 85.6935 81.7658C85.3084 81.7814 84.9245 81.8199 84.544 81.881C83.5344 82.0657 82.5285 82.2728 81.5234 82.4799C80.518 82.6856 79.5123 82.8848 78.5041 83.0675C77.263 83.2953 76.0201 83.51 74.7776 83.7276L71.0465 84.3595C70.6622 84.4092 70.2733 84.4118 69.8884 84.3673C69.5169 84.3382 69.2277 84.0565 69.0065 83.6591C68.6841 83.0801 68.7705 82.382 69.2485 82.1328C69.5582 81.9836 69.8956 81.9003 70.2392 81.8882C71.7892 81.7793 73.3211 81.4884 74.8031 81.0213C75.2146 80.8933 75.6379 80.7257 76.0625 80.7485C77.4169 80.8157 78.71 80.4464 80.042 80.3673C81.0307 80.3053 82.011 80.1505 82.9983 80.0696C83.8787 79.9973 84.7594 79.932 85.6404 79.8734L88.2884 79.7518C88.979 79.7164 89.6681 79.8463 90.2983 80.1309C90.3637 80.1558 90.4201 80.1997 90.4604 80.2569C90.5007 80.3141 90.5229 80.382 90.5243 80.4519C90.5258 80.5219 90.5062 80.5907 90.4683 80.6494C90.4303 80.7082 90.3757 80.7543 90.3114 80.7818C89.8843 80.9899 89.4453 81.1726 88.9966 81.3287C88.6233 81.4276 88.2432 81.4988 87.8594 81.5418L87.8602 81.5748Z" fill="white"/>
<path d="M76.6868 100.158C76.5039 100.091 76.3187 100.032 76.1395 99.9545L75.6025 99.7201C75.4149 99.6324 75.2202 99.5607 75.0205 99.5056C74.4828 99.3778 73.9383 99.2701 73.4038 99.133C72.8673 99.002 72.3316 98.8679 71.8024 98.7147C71.1503 98.5268 70.5019 98.3277 69.8607 98.1072L67.9369 97.4462C67.7405 97.3627 67.5613 97.2432 67.4087 97.094C67.2507 96.9568 67.2193 96.6577 67.26 96.2939C67.3193 95.7637 67.6053 95.2721 67.9075 95.2348C68.0932 95.2188 68.2792 95.2622 68.4387 95.3588C69.1721 95.7553 69.9769 96.0025 70.8064 96.0859C71.038 96.1113 71.2905 96.1036 71.4758 96.2472C72.07 96.6983 72.789 96.7938 73.4288 97.1135C73.9031 97.3546 74.4154 97.4919 74.8958 97.7186C75.7539 98.1188 76.6187 98.4975 77.4664 98.9276C77.8199 99.1002 78.1109 99.3784 78.2993 99.7237C78.3216 99.7664 78.3343 99.8136 78.3365 99.8618C78.3387 99.91 78.3304 99.9581 78.312 100.003C78.2937 100.047 78.2658 100.087 78.2304 100.12C78.1949 100.153 78.1527 100.177 78.1068 100.192C77.9737 100.215 77.8391 100.233 77.7049 100.246C77.5735 100.262 77.4409 100.266 77.3087 100.259C77.1014 100.236 76.8966 100.194 76.697 100.133L76.6868 100.158Z" fill="white"/>
<path d="M29.6616 46.9298C29.7828 47.3793 29.8991 47.8292 30.0105 48.2796C30.0635 48.5196 30.131 48.7562 30.2125 48.988C30.4559 49.595 30.693 50.2057 30.9188 50.8217C31.142 51.4384 31.3414 52.0632 31.5171 52.6961C31.7249 53.4767 31.9094 54.2642 32.0603 55.0584C32.2115 55.8524 32.3409 56.6502 32.4486 57.4517C32.4705 57.7014 32.45 57.953 32.3881 58.1959C32.3406 58.4339 32.0978 58.6125 31.7671 58.7423C31.2852 58.9309 30.7361 58.8592 30.5717 58.5647C30.4769 58.3764 30.4325 58.1668 30.4427 57.9562C30.4508 57.0056 30.2698 56.0629 29.9102 55.1828C29.8134 54.9374 29.6778 54.6911 29.6914 54.4305C29.738 53.5943 29.4043 52.8363 29.2765 52.0347C29.2271 51.7366 29.1615 51.4414 29.0802 51.1504C29.0051 50.8577 28.921 50.5674 28.8493 50.2735C28.5923 49.2257 28.3247 48.1753 28.0083 47.1367C27.8891 46.6957 27.9146 46.228 28.0812 45.8026C28.1447 45.5929 28.3582 45.5125 28.6077 45.622L28.8407 45.7549C28.8779 45.7738 28.9111 45.7998 28.9384 45.8314L29.0196 45.9158C29.1258 46.0279 29.2251 46.1464 29.317 46.2705C29.3899 46.3709 29.4519 46.4788 29.502 46.5923C29.5467 46.7073 29.5865 46.8246 29.6329 46.9385L29.6616 46.9298Z" fill="white"/>
</g>
<defs>
<clipPath id="clip0_221_703">
<rect width="89.0564" height="89.0564" fill="white" transform="translate(62.9727) rotate(45)"/>
</clipPath>
</defs>
</svg>
